<svg width="132" height="132" viewBox="0 0 132 132" fill="none" xmlns="http://www.w3.org/2000/svg">
<path fill-rule="evenodd" clip-rule="evenodd" d="M66.0034 4.90173C37.9709 4.90173 13.6342 24.1335 6.7916 50.9246C5.42571 56.2729 4.81882 61.7499 4.91214 66.9242L4.91472 67.0761C4.91472 67.0763 4.91472 67.0763 4.91472 67.0763C5.49042 100.181 32.6394 127.106 66.0031 127.106C93.6352 127.106 117.138 108.597 124.621 83.2321C124.621 83.2314 124.621 83.2306 124.622 83.2298C127.163 74.6191 127.017 67.956 127.092 67.0771L127.094 66.9487C127.691 33.0489 100.047 4.90173 66.0034 4.90173ZM10.1774 69.6093C13.346 69.6093 118.736 69.6093 121.83 69.6093C121.605 73.0983 121.056 76.5514 120.187 79.9218H11.8197C10.9514 76.5512 10.4015 73.098 10.1774 69.6093ZM121.928 64.4531H68.5818V54.1406H120.678C121.413 57.5226 121.832 60.978 121.928 64.4531ZM68.5815 48.9843V38.6718H114.785C116.637 41.9584 118.147 45.4123 119.293 48.9843H68.5815ZM111.5 33.5156H68.5815V23.2031H101.957C105.571 26.244 108.767 29.6987 111.5 33.5156ZM68.5818 10.1183C77.8146 10.5512 86.8254 13.2979 94.7369 18.0468H68.5818V10.1183ZM15.682 41.5985L17.8878 43.1972L16.9752 45.9937L19.3499 44.2591L21.73 45.9937L20.8174 43.1972L23.2029 41.4683L20.2571 41.4737L19.3499 38.6718L18.4481 41.4735L15.7439 41.4686C24.5092 23.6169 42.5138 11.0983 63.4253 10.1181C63.4253 28.34 63.4253 46.4021 63.4253 64.4528H10.0792C10.3053 56.2753 12.2974 48.5368 15.682 41.5985ZM40.9662 116.016H91.0403C75.3473 123.935 56.6525 123.931 40.9662 116.016ZM99.3646 110.859H32.6422C28.6564 107.886 25.1097 104.431 22.052 100.547H109.955C106.897 104.431 103.351 107.886 99.3646 110.859ZM113.569 95.3906H18.4385C16.4106 92.1246 14.7304 88.6712 13.4202 85.0781H118.587C117.277 88.6715 115.596 92.1249 113.569 95.3906Z" fill="#1F0F64"/>
<path fill-rule="evenodd" clip-rule="evenodd" d="M34.7851 23.2031L33.8833 26.0048L30.9375 25.9996L33.3228 27.7285L32.4104 30.5247L34.7851 28.7904L37.1652 30.5247L36.2526 27.7285L38.6381 25.9996L35.6923 26.0048L34.7851 23.2031Z" fill="#1F0F64"/>
<path fill-rule="evenodd" clip-rule="evenodd" d="M42.4858 23.2031L41.5839 26.0048L38.6382 25.9996L41.0237 27.7285L40.1111 30.5247L42.4858 28.7904L44.8659 30.5247L43.9532 27.7285L46.3388 25.9996L43.393 26.0048L42.4858 23.2031Z" fill="#1F0F64"/>
<path fill-rule="evenodd" clip-rule="evenodd" d="M50.2202 23.2031L49.3183 26.0048L46.3726 25.9996L48.7581 27.7285L47.8454 30.5247L50.2202 28.7904L52.6003 30.5247L51.6876 27.7285L54.0732 25.9996L51.1274 26.0048L50.2202 23.2031Z" fill="#1F0F64"/>
<path fill-rule="evenodd" clip-rule="evenodd" d="M57.9545 23.2031L57.0527 26.0048L54.1069 25.9996L56.4925 27.7285L55.5798 30.5247L57.9545 28.7904L60.3346 30.5247L59.422 27.7285L61.8075 25.9996L58.8618 26.0048L57.9545 23.2031Z" fill="#1F0F64"/>
<path fill-rule="evenodd" clip-rule="evenodd" d="M42.4858 15.8815L41.5839 18.6831L38.6382 18.6777L41.0237 20.4069L40.1111 23.2031L42.4858 21.4688L44.8659 23.2031L43.9532 20.4069L46.3388 18.6777L43.393 18.6831L42.4858 15.8815Z" fill="#1F0F64"/>
<path fill-rule="evenodd" clip-rule="evenodd" d="M50.2202 15.8815L49.3183 18.6831L46.3726 18.6777L48.7581 20.4069L47.8454 23.2031L50.2202 21.4688L52.6003 23.2031L51.6876 20.4069L54.0732 18.6777L51.1274 18.6831L50.2202 15.8815Z" fill="#1F0F64"/>
<path fill-rule="evenodd" clip-rule="evenodd" d="M57.9545 15.8815L57.0527 18.6831L54.1069 18.6777L56.4925 20.4069L55.5798 23.2031L57.9545 21.4688L60.3346 23.2031L59.422 20.4069L61.8075 18.6777L58.8618 18.6831L57.9545 15.8815Z" fill="#1F0F64"/>
<path fill-rule="evenodd" clip-rule="evenodd" d="M34.7851 30.5248L33.8833 33.3267L30.9375 33.3213L33.3228 35.0502L32.4104 37.8467L34.7851 36.1121L37.1652 37.8467L36.2526 35.0502L38.6381 33.3213L35.6923 33.3267L34.7851 30.5248Z" fill="#1F0F64"/>
<path fill-rule="evenodd" clip-rule="evenodd" d="M42.4858 30.5248L41.5839 33.3267L38.6382 33.3213L41.0237 35.0502L40.1111 37.8467L42.4858 36.1121L44.8659 37.8467L43.9532 35.0502L46.3388 33.3213L43.393 33.3267L42.4858 30.5248Z" fill="#1F0F64"/>
<path fill-rule="evenodd" clip-rule="evenodd" d="M50.2202 30.5248L49.3183 33.3267L46.3726 33.3213L48.7581 35.0502L47.8454 37.8467L50.2202 36.1121L52.6003 37.8467L51.6876 35.0502L54.0732 33.3213L51.1274 33.3267L50.2202 30.5248Z" fill="#1F0F64"/>
<path fill-rule="evenodd" clip-rule="evenodd" d="M57.9545 30.5248L57.0527 33.3267L54.1069 33.3213L56.4925 35.0502L55.5798 37.8467L57.9545 36.1121L60.3346 37.8467L59.422 35.0502L61.8075 33.3213L58.8618 33.3267L57.9545 30.5248Z" fill="#1F0F64"/>
<path fill-rule="evenodd" clip-rule="evenodd" d="M34.7851 38.6719L33.8833 41.4735L30.9375 41.4684L33.3228 43.1973L32.4104 45.9935L34.7851 44.2592L37.1652 45.9935L36.2526 43.1973L38.6381 41.4684L35.6923 41.4735L34.7851 38.6719Z" fill="#1F0F64"/>
<path fill-rule="evenodd" clip-rule="evenodd" d="M42.4858 38.6719L41.5839 41.4735L38.6382 41.4684L41.0237 43.1973L40.1111 45.9935L42.4858 44.2592L44.8659 45.9935L43.9532 43.1973L46.3388 41.4684L43.393 41.4735L42.4858 38.6719Z" fill="#1F0F64"/>
<path fill-rule="evenodd" clip-rule="evenodd" d="M50.2202 38.6719L49.3183 41.4735L46.3726 41.4684L48.7581 43.1973L47.8454 45.9935L50.2202 44.2592L52.6003 45.9935L51.6876 43.1973L54.0732 41.4684L51.1274 41.4735L50.2202 38.6719Z" fill="#1F0F64"/>
<path fill-rule="evenodd" clip-rule="evenodd" d="M57.9545 38.6719L57.0527 41.4735L54.1069 41.4684L56.4925 43.1973L55.5798 45.9935L57.9545 44.2592L60.3346 45.9935L59.422 43.1973L61.8075 41.4684L58.8618 41.4735L57.9545 38.6719Z" fill="#1F0F64"/>
<path fill-rule="evenodd" clip-rule="evenodd" d="M34.7851 45.9935L33.8833 48.7954L30.9375 48.79L33.3228 50.5189L32.4104 53.3154L34.7851 51.5808L37.1652 53.3154L36.2526 50.5189L38.6381 48.79L35.6923 48.7954L34.7851 45.9935Z" fill="#1F0F64"/>
<path fill-rule="evenodd" clip-rule="evenodd" d="M42.4858 45.9935L41.5839 48.7954L38.6382 48.79L41.0237 50.5189L40.1111 53.3154L42.4858 51.5808L44.8659 53.3154L43.9532 50.5189L46.3388 48.79L43.393 48.7954L42.4858 45.9935Z" fill="#1F0F64"/>
<path fill-rule="evenodd" clip-rule="evenodd" d="M50.2202 45.9935L49.3183 48.7954L46.3726 48.79L48.7581 50.5189L47.8454 53.3154L50.2202 51.5808L52.6003 53.3154L51.6876 50.5189L54.0732 48.79L51.1274 48.7954L50.2202 45.9935Z" fill="#1F0F64"/>
<path fill-rule="evenodd" clip-rule="evenodd" d="M57.9545 45.9935L57.0527 48.7954L54.1069 48.79L56.4925 50.5189L55.5798 53.3154L57.9545 51.5808L60.3346 53.3154L59.422 50.5189L61.8075 48.79L58.8618 48.7954L57.9545 45.9935Z" fill="#1F0F64"/>
<path fill-rule="evenodd" clip-rule="evenodd" d="M34.7851 53.3154L33.8833 56.1171L30.9375 56.1119L33.3228 57.8408L32.4104 60.637L34.7851 58.9027L37.1652 60.637L36.2526 57.8408L38.6381 56.1119L35.6923 56.1171L34.7851 53.3154Z" fill="#1F0F64"/>
<path fill-rule="evenodd" clip-rule="evenodd" d="M27.0507 30.5248L26.1489 33.3267L23.2031 33.3213L25.5884 35.0502L24.676 37.8467L27.0507 36.1121L29.4308 37.8467L28.5182 35.0502L30.9037 33.3213L27.958 33.3267L27.0507 30.5248Z" fill="#1F0F64"/>
<path fill-rule="evenodd" clip-rule="evenodd" d="M24.676 45.9935L27.0507 44.2592L29.4308 45.9935L28.5182 43.1973L30.9037 41.4684L27.958 41.4735L27.0507 38.6719L26.1489 41.4735L23.2031 41.4684L25.5884 43.1973L24.676 45.9935Z" fill="#1F0F64"/>
<path fill-rule="evenodd" clip-rule="evenodd" d="M27.0507 45.9935L26.1489 48.7954L23.2031 48.79L25.5884 50.5189L24.676 53.3154L27.0507 51.5808L29.4308 53.3154L28.5182 50.5189L30.9037 48.79L27.958 48.7954L27.0507 45.9935Z" fill="#1F0F64"/>
<path fill-rule="evenodd" clip-rule="evenodd" d="M27.958 56.1171L27.0507 53.3154L26.1489 56.1171L23.2031 56.1119L25.5884 57.8408L24.676 60.637L27.0507 58.9027L29.4308 60.637L28.5182 57.8408L30.9037 56.1119L27.958 56.1171Z" fill="#1F0F64"/>
<path fill-rule="evenodd" clip-rule="evenodd" d="M19.35 45.9935L18.4482 48.7954L15.5024 48.79L17.888 50.5189L16.9753 53.3154L19.35 51.5808L21.7302 53.3154L20.8178 50.5189L23.203 48.79L20.2573 48.7954L19.35 45.9935Z" fill="#1F0F64"/>
<path fill-rule="evenodd" clip-rule="evenodd" d="M19.35 53.3154L18.4482 56.1171L15.5024 56.1119L17.888 57.8408L16.9753 60.637L19.35 58.9027L21.7302 60.637L20.8178 57.8408L23.203 56.1119L20.2573 56.1171L19.35 53.3154Z" fill="#1F0F64"/>
<path fill-rule="evenodd" clip-rule="evenodd" d="M43.393 56.1171L42.4858 53.3154L41.5839 56.1171L38.6382 56.1119L41.0237 57.8408L40.1111 60.637L42.4858 58.9027L44.8659 60.637L43.9532 57.8408L46.3388 56.1119L43.393 56.1171Z" fill="#1F0F64"/>
<path fill-rule="evenodd" clip-rule="evenodd" d="M51.1274 56.1171L50.2202 53.3154L49.3183 56.1171L46.3726 56.1119L48.7581 57.8408L47.8454 60.637L50.2202 58.9027L52.6003 60.637L51.6876 57.8408L54.0732 56.1119L51.1274 56.1171Z" fill="#1F0F64"/>
<path fill-rule="evenodd" clip-rule="evenodd" d="M58.8618 56.1171L57.9545 53.3154L57.0527 56.1171L54.1069 56.1119L56.4925 57.8408L55.5798 60.637L57.9545 58.9027L60.3346 60.637L59.422 57.8408L61.8075 56.1119L58.8618 56.1171Z" fill="#1F0F64"/>
</svg>
