<svg width="132" height="132" viewBox="0 0 132 132" fill="none" xmlns="http://www.w3.org/2000/svg">
<g clip-path="url(#clip0_135_358)">
<path d="M122.211 122.161L120.403 107.191C120.4 107.166 120.396 107.141 120.392 107.117C119.896 104.058 118.47 101.226 116.309 99.0059C114.148 96.7855 111.355 95.2837 108.312 94.7046L89.8729 91.2363L89.8713 91.236L84.8774 90.2967C89.717 89.3561 94.4815 88.0632 99.1327 86.4284C101.209 85.6958 102.968 84.2659 104.109 82.3823C105.25 80.4987 105.703 78.2779 105.39 76.098L102.513 56.3735H104.118C105.147 56.3723 106.133 55.9631 106.861 55.2355C107.588 54.5079 107.998 53.5215 107.999 52.4925V44.6129C107.998 43.5839 107.588 42.5975 106.861 41.8699C106.133 41.1423 105.147 40.733 104.118 40.7319H100.926C100.677 40.1369 100.361 39.5719 99.9854 39.0475L98.3804 28.0439C97.2427 20.2526 93.3385 13.1311 87.3818 7.98173C81.425 2.83231 73.8138 -0.000957656 65.9399 2.42812e-07L64.4854 2.42812e-07C56.5016 0.0105489 48.7952 2.92969 42.808 8.21124C36.8208 13.4928 32.9631 20.7749 31.9567 28.695L30.4467 40.7319H27.2891C26.2602 40.733 25.2737 41.1423 24.5461 41.8699C23.8185 42.5975 23.4093 43.5839 23.4081 44.6129V52.4926C23.4093 53.5215 23.8186 54.5079 24.5461 55.2355C25.2737 55.9631 26.2602 56.3723 27.2891 56.3735H28.4846L25.9915 76.2471C25.7313 78.3924 26.207 80.5625 27.3408 82.4023C28.4746 84.242 30.1993 85.6424 32.2327 86.3743C37.028 88.0699 41.9447 89.4007 46.9406 90.3555L42.6864 91.1921C42.6768 91.194 42.6672 91.1957 42.6577 91.1978L24.428 94.7826C21.5919 95.3446 18.9771 96.7099 16.895 98.716C14.813 100.722 13.3514 103.284 12.6845 106.098C12.6764 106.131 12.6694 106.165 12.6633 106.2L9.90543 121.568C9.61944 122.818 9.61876 124.116 9.90342 125.365C10.1881 126.615 10.7508 127.785 11.5496 128.787C12.3485 129.789 13.3631 130.599 14.5178 131.155C15.6726 131.711 16.9379 132 18.2196 132H113.78C115.011 132 116.228 131.734 117.346 131.219C118.464 130.705 119.458 129.955 120.259 129.02C121.06 128.085 121.649 126.988 121.986 125.804C122.323 124.62 122.399 123.377 122.211 122.161V122.161ZM101.587 44.605L104.132 44.6129L104.118 52.5063H101.587V44.605ZM99.0151 59.1885L101.563 76.6564C101.748 77.9492 101.479 79.266 100.802 80.3826C100.124 81.4992 99.081 82.3465 97.8492 82.7802C92.49 84.6642 86.9762 86.0754 81.3708 86.9976V79.5419L82.7694 78.6668C84.8075 77.3973 86.5275 75.6777 87.7976 73.64H88.1133C90.3458 73.6377 92.4863 72.7501 94.0652 71.1716C95.6441 69.5932 96.5324 67.4529 96.5352 65.2204V60.8971C97.4556 60.4773 98.2951 59.899 99.0151 59.1885V59.1885ZM73.2107 80.0858C70.9563 81.4835 68.3564 82.2241 65.7039 82.2242C63.0513 82.2242 60.4514 81.4837 58.1969 80.086L54.1882 77.578C54.1815 77.5735 54.1745 77.5697 54.1679 77.5653L50.6874 75.3878C48.9786 74.3272 47.5698 72.8469 46.5949 71.0878C45.62 69.3288 45.1116 67.3495 45.118 65.3384V39.1719C47.0184 38.9111 48.8373 38.232 50.4435 37.1835C52.0498 36.135 53.4035 34.7432 54.407 33.1084C55.6361 34.3233 56.9684 35.4291 58.389 36.4133L58.7644 36.6691C67.5633 42.6325 77.0618 41.2426 86.2887 39.6612V65.3384C86.2906 66.8574 86.0013 68.3627 85.4364 69.7728H72.4713C72.0774 68.6581 71.348 67.6927 70.3832 67.0095C69.4184 66.3262 68.2656 65.9585 67.0834 65.9569H63.7996C62.2848 65.9587 60.8327 66.5612 59.7616 67.6323C58.6906 68.7034 58.0881 70.1556 58.0864 71.6704V71.7426C58.0882 73.2573 58.6906 74.7095 59.7617 75.7805C60.8327 76.8516 62.2849 77.454 63.7996 77.4558H67.0834C68.2657 77.4542 69.4184 77.0866 70.3832 76.4033C71.348 75.72 72.0775 74.7547 72.4713 73.64H82.8953C82.2405 74.3056 81.51 74.8923 80.7188 75.388L73.2107 80.0858ZM77.5037 81.9616V90.7654C77.5028 90.9853 77.4521 91.2021 77.3554 91.3996C77.2586 91.5971 77.1183 91.77 76.945 91.9054L66.024 100.405L55.5727 91.9295C55.2779 91.6918 55.089 91.3473 55.047 90.9709C55.0459 90.9568 55.046 90.9428 55.0446 90.9287C55.0414 90.8891 55.038 90.8495 55.038 90.8094V82.6714L56.1463 83.3648C59.0166 85.1444 62.3267 86.0872 65.7039 86.0872C69.0811 86.0872 72.3912 85.1442 75.2614 83.3646L77.5037 81.9616ZM68.9294 71.6704V71.7426C68.9288 72.232 68.7342 72.7013 68.3881 73.0473C68.042 73.3934 67.5728 73.5881 67.0834 73.5886H63.7996C63.3102 73.5881 62.8409 73.3934 62.4949 73.0473C62.1488 72.7013 61.9541 72.232 61.9536 71.7426V71.6704C61.9541 71.1809 62.1488 70.7117 62.4948 70.3656C62.8409 70.0194 63.3101 69.8247 63.7996 69.8241H67.0834C67.5729 69.8247 68.0421 70.0194 68.3881 70.3656C68.7342 70.7117 68.9289 71.1809 68.9294 71.6704V71.6704ZM89.5957 69.5203C89.968 68.1575 90.1564 66.7511 90.1559 65.3383V61.6697H92.668V65.2204C92.6663 66.1675 92.3695 67.0906 91.8188 67.8612C91.2682 68.6318 90.4911 69.2118 89.5957 69.5203ZM97.72 44.0368V53.0685C97.7186 54.3236 97.2194 55.5269 96.3319 56.4144C95.4444 57.3018 94.2411 57.8011 92.986 57.8025H90.1559V39.3029L92.986 39.3028C94.2411 39.3042 95.4444 39.8034 96.3319 40.6909C97.2194 41.5784 97.7186 42.7817 97.72 44.0368V44.0368ZM35.7937 29.1764C36.6816 22.1907 40.0843 15.7678 45.3652 11.1094C50.6462 6.45104 57.4435 3.8764 64.4854 3.86719H65.9399C72.8849 3.86617 79.5982 6.36505 84.8522 10.9069C90.1063 15.4487 93.55 21.73 94.5535 28.6021L95.6103 35.8472C94.7623 35.5743 93.8769 35.4355 92.986 35.4356L88.3196 35.4357C88.3102 35.4353 88.3007 35.4361 88.2913 35.4357H88.2223L88.2145 35.4361C88.1543 35.4364 88.0942 35.4393 88.0339 35.4453C88.0253 35.4461 88.0167 35.4473 88.0081 35.4482C87.9711 35.4524 87.9341 35.4547 87.8972 35.4611L86.5737 35.6883C77.4042 37.2679 68.7428 38.7597 60.9342 33.4679L60.5825 33.2284C58.6365 31.8802 56.8852 30.271 55.3776 28.4457C55.157 28.1785 54.8687 27.9755 54.5427 27.8578C54.2167 27.7402 53.8652 27.7124 53.5248 27.7772C53.1843 27.842 52.8676 27.9971 52.6077 28.2263C52.3477 28.4554 52.1542 28.7502 52.0472 29.0798C51.445 30.9447 50.2617 32.5678 48.6704 33.7115C47.0791 34.8552 45.1635 35.4595 43.204 35.4359C43.2013 35.4359 43.1985 35.4362 43.1957 35.4362C43.1919 35.4362 43.1882 35.4356 43.1844 35.4356L38.4209 35.4358C37.2117 35.436 36.0163 35.693 34.9139 36.1898L35.7937 29.1764ZM33.6869 44.0369C33.6883 42.7818 34.1875 41.5785 35.075 40.691C35.9625 39.8036 37.1658 39.3044 38.4209 39.3029L41.2508 39.3029V57.8025H38.4209C37.1658 57.8011 35.9625 57.3019 35.075 56.4144C34.1875 55.5269 33.6883 54.3236 33.6869 53.0685V44.0369ZM27.2753 52.4926L27.2891 44.5991H29.8197V52.5003L27.2753 52.4926ZM33.5227 82.7286C32.3185 82.2945 31.2973 81.4646 30.6262 80.3746C29.9551 79.2846 29.6739 77.9991 29.8285 76.7284L32.0705 58.8563C32.8742 59.7423 33.8544 60.4503 34.9481 60.9348C36.0417 61.4193 37.2247 61.6697 38.4209 61.6697H41.2508V65.3384C41.2423 68.0056 41.9166 70.6306 43.2094 72.9636C44.5022 75.2965 46.3706 77.2598 48.6367 78.6666L51.1708 80.252V87.1612C45.1623 86.2394 39.2537 84.7554 33.5227 82.7286V82.7286ZM51.8106 93.3391C52.1437 93.9524 52.5944 94.4941 53.1369 94.9332L63.8283 103.603C64.4374 104.102 65.1982 104.378 65.9852 104.385C66.7722 104.393 67.5383 104.132 68.1569 103.645L79.3194 94.9578C79.8544 94.54 80.3041 94.0231 80.644 93.4355L87.3406 94.6951C87.0917 95.4523 86.6249 96.1192 85.9986 96.6122L66.105 112.095C66.0236 112.159 65.9229 112.193 65.8196 112.192C65.7163 112.191 65.6164 112.154 65.5363 112.089L46.4788 96.6329C45.8472 96.1208 45.3873 95.4278 45.1608 94.6468L51.8106 93.3391ZM117.33 126.494C116.893 127.008 116.348 127.421 115.736 127.704C115.123 127.987 114.456 128.133 113.78 128.133H18.2196C17.5165 128.133 16.8225 127.974 16.1896 127.668C15.5566 127.362 15.0011 126.916 14.5647 126.365C14.1282 125.814 13.8221 125.171 13.6692 124.485C13.5164 123.799 13.5207 123.087 13.682 122.402C13.69 122.368 13.6971 122.334 13.7031 122.3L16.46 106.936C16.963 104.856 18.0509 102.964 19.5952 101.482C21.1395 100.001 23.0757 98.9929 25.1748 98.577L41.3538 95.3954C41.7608 97.0664 42.7062 98.557 44.0442 99.6375L63.1014 115.093C63.859 115.712 64.8046 116.054 65.7826 116.064C66.7605 116.073 67.7126 115.749 68.482 115.146L88.3758 99.6627C89.7511 98.5952 90.7324 97.1008 91.1653 95.4145L107.595 98.505C109.852 98.9344 111.922 100.046 113.526 101.689C115.131 103.332 116.192 105.428 116.568 107.694L118.375 122.659C118.379 122.684 118.382 122.709 118.386 122.733C118.493 123.399 118.454 124.08 118.272 124.73C118.089 125.379 117.768 125.981 117.33 126.494V126.494Z" fill="#1F0F64"/>
</g>
<defs>
<clipPath id="clip0_135_358">
<rect width="132" height="132" fill="white"/>
</clipPath>
</defs>
</svg>
