<svg id="Layer_1" data-name="Layer 1" xmlns="http://www.w3.org/2000/svg" viewBox="0 0 783.45 272.31"><defs><style>.cls-1{fill:#f3857e;}.cls-2{fill:#8014ee;}.cls-3{fill:#1b134a;}.cls-4{fill:#502a76;}.cls-5{fill:#5a499d;}.cls-6{fill:#1b1249;}.cls-7{fill:#532f7a;}.cls-8{fill:#705aa0;}.cls-9{fill:#f86151;}.cls-10{fill:#33144b;}.cls-11{fill:#fcf4ee;}.cls-12{fill:#3a2b7d;}</style></defs><path class="cls-1" d="M126,272.31q-32.9-18.78-65.76-37.55c-18.35-10.53-36.56-21.3-55-31.6-4.1-2.29-5.28-5-5.25-9.32C.14,173.4.06,153,.07,132.53.09,103.58.86,41,1.22,38.69L34.75,58.07c2.51,23.31,12.6,42.39,31.58,56.53-.43,1.9-1.21,3.81-1.23,5.72-.14,11.14.24,22.29-.26,33.41-.25,5.32,1.87,8,6.17,10.44,14.07,7.9,27.94,16.17,42,24.16,4.93,2.8,10.11,5.17,15.18,7.73.15.8-.32,50.2-.44,70.35C127.7,268.38,126.62,270.34,126,272.31Z"/><path class="cls-2" d="M352.58,188.36c-28.19,11-49.39,6.58-63.39-12.73a46.9,46.9,0,0,1,1.45-56.82c15.73-19.27,36-21.85,65.93-8.22a20.89,20.89,0,0,0,.42-3.72c-.23-3.17,1.2-4.08,4.27-4.21,12.88-.53,12.89-.62,12.9,12.23,0,19.67.06,39.34,0,59-.09,25-20.42,45.65-45.43,46.43-3.3.1-5-.81-4.59-4.33.08-.73,0-1.48,0-2.23.09-3.14-.84-6.94.62-9.21,1.06-1.66,5.28-1.25,8.08-1.85C341.23,200.88,347.82,196.19,352.58,188.36ZM327,177.7c16.55,0,30-13.16,30-29.41a29.76,29.76,0,0,0-29.66-29.78A30.09,30.09,0,0,0,297.25,148C297.09,164.17,310.62,177.67,327,177.7Z"/><path class="cls-3" d="M193.77,190.56c-.1,14.59,0,29.23-.06,43.82-1.18-.94-40.62-23.94-40.62-23.94q0-56.25-.05-112.51c9.11-7.14,37.48-23.12,39.52-23.74C194,109.73,193.86,154.92,193.77,190.56Z"/><path class="cls-2" d="M677.72,110.62V76.14h17v8.42q0,32.32,0,64.64c0,22.69-15.74,41-39,45.38-21.16,4-43.95-8.89-51.61-29.19-7.26-19.22-1.94-40.2,13.45-53.06,15.93-13.31,37-14.93,55.07-4.26C674,108.86,675.47,109.48,677.72,110.62Zm-30,66.89a29.63,29.63,0,0,0,30-29.31c.17-15.9-13.23-29.3-29.41-29.43a29.37,29.37,0,1,0-.61,58.74Z"/><path class="cls-4" d="M192.56,74.19C182.08,80.35,170.44,86.88,160,93.11c-2.33,1.39-4.43,3.18-6.64,4.79-8.14,4.5-16.42,9.29-24.56,13.8L103.69,97.78c-3.74-2.27-7.48-4.31-11.22-6.58-8.81-5-17.83-10.4-26.64-15.4-.72-.64,3.06-74.12,3.68-73.87L90.35,13.32a44.5,44.5,0,0,0,2.81,5c2.3,8,4,15.74,7.31,23.25,6.45,14.79,14.9,26.55,30.08,33.26,14.91,6.59,31.16-5,31.7-19.24C162.73,55.55,192.56,74.19,192.56,74.19Z"/><path class="cls-2" d="M543.27,101.25c26.88.52,47,21.69,46.43,48.74-.56,25.32-22.33,45.59-48.44,45.1-25.26-.48-46.33-22.33-45.69-47.39C496.25,121.29,517.35,100.74,543.27,101.25Zm-.34,76.31a29.32,29.32,0,0,0,29.36-29.43,29.67,29.67,0,0,0-59.34.06C512.93,164.68,526.15,177.64,542.93,177.56Z"/><path class="cls-2" d="M437.36,101.43c26.49.24,47.08,20.82,46.95,46.91a46.87,46.87,0,0,1-47.89,46.74c-25.55-.32-46.48-21.79-46.2-47.39A46.77,46.77,0,0,1,437.36,101.43Zm.17,76.18a29.51,29.51,0,0,0,29.56-29.86c0-16-13.79-29.28-30.38-29.16a29.41,29.41,0,0,0-29,29.69C407.67,164.82,420.75,177.67,437.53,177.61Z"/><path class="cls-2" d="M779.2,120.22H735.94c-7.55-.69-9.1,2.36-10.08,4.33-1.6,3.23.93,5.42,3.95,6.77,12.88,5.79,25.79,11.53,38.61,17.45s18.09,17.46,13.23,29.7c-3.59,9-10.48,14.73-20.26,15.08-15.24.55-30.52.29-45.77,0-1.33,0-3.64-2.36-3.77-3.78-1.27-13.57-1.16-13.58,12.37-13.59,11,0,22,0,32.94,0,3.88,0,7.25-.75,8.07-5.11.76-4-2.38-5.39-5.34-6.72q-18.81-8.47-37.61-17c-11.6-5.28-16.57-14.69-14-26.52,2.31-10.83,11.74-18.21,23.51-18.25,14.14,0,28.29.1,42.43-.1,3.92,0,5.36,1.18,5.08,5.1S779.2,115.71,779.2,120.22Z"/><path class="cls-5" d="M66.13,75.9s-13.74-8-19.52-11L34.75,58.07,1.22,38.69C4.3,35.93,58.51,3.15,61.5,1.3c3.18-2,4.87-1.66,8,.63Z"/><path class="cls-2" d="M153.19,210.54s12,6.69,22.8,13.07c9.31,5.47,17.72,10.77,17.72,10.77-1,.62-65.89,37.93-67.68,37.92C127.41,268.66,147.16,226.73,153.19,210.54Z"/><path class="cls-6" d="M162.35,55.69c-.32,16.22-17.12,25.86-32,19.27C115.14,68.25,105,56.37,98.58,41.58c-3.28-7.51-5.94-20.32-8.23-28.26,0,0,9.56,5.44,9.66,5.46,5.82,16.74,10.41,34.66,28.48,43C139.71,67,146.71,58.24,150,48.08Z"/><path class="cls-7" d="M148,53.9c-3.24,9-10.75,12.12-19.48,7.92C114.35,55,107.27,42.84,103,28.48c-1-3.29-2.1-6.53-3.16-9.79.06.17,50.12,29.39,50.12,29.39S148.4,52.7,148,53.9Z"/><path class="cls-8" d="M193.89,228.22q0-3.78-.08-7.56Q193.86,224.44,193.89,228.22Z"/><path class="cls-8" d="M194,156.94c0-1.33,0-2.65.05-4C194,154.29,194,155.61,194,156.94Z"/><path class="cls-8" d="M193.87,190.66c-.05-1.53-.1-3-.16-4.58C193.77,187.61,193.82,189.13,193.87,190.66Z"/><path class="cls-9" d="M103.79,97.71l24.92,13.83c-.05,17.81-.05,35.61-.15,53.41-.06,10.37-.26,20.74-.4,31.11-5.07-2.56-10.25-4.93-15.18-7.73-14-8-27.9-16.26-42-24.16-4.3-2.42-6.42-5.12-6.17-10.44.5-11.12.12-22.27.26-33.41,0-1.91.17-6.71.17-6.71.23.93,7.63,4.47,11.09,5.69,12.09,4.26,22-.8,25.65-13C102.84,103.53,103.21,100.59,103.79,97.71Z"/><path class="cls-10" d="M128.16,196.06c.14-10.37.34-20.74.4-31.11.1-17.8.1-35.6.15-53.41L153.14,98q0,56.25.05,112.51C151,209.73,128.31,196.86,128.16,196.06Z"/><path class="cls-11" d="M103.79,97.71c-.58,2.88-1,5.82-1.78,8.62-3.64,12.17-13.56,17.23-25.65,13-3.46-1.22-6.69-3.12-10-4.7-19-14.14-29.07-33.22-31.58-56.53L46.6,64.93c.11,14.91,7.18,26.25,18.28,35.53,5.5,5.19,11.85,8.61,19.41,5.83,6.84-2.51,8.27-8.77,8.28-15.39Z"/><path class="cls-12" d="M126,272.31c0-22.58,2.12-52,2.12-76.25,6.81,4,22.85,13.67,25,14.48.46.39-1.85,5-2.75,7.17C143.83,233.73,126.42,271.69,126,272.31Z"/><path class="cls-9" d="M92.57,90.9c0,6.62-1.44,12.88-8.28,15.39-7.56,2.78-13.91-.64-19.41-5.83,0-2,0-4,.14-6,.34-6.17.74-12.34,1.11-18.51Z"/><path class="cls-1" d="M66.13,75.9c-.37,6.17-.77,12.34-1.11,18.51-.12,2-.1,4-.14,6C53.78,91.18,46.71,79.84,46.6,64.93,52.39,68,65.41,75.26,66.13,75.9Z"/></svg>