<svg id="Layer_1" data-name="Layer 1" xmlns="http://www.w3.org/2000/svg" viewBox="0 0 558.66 194.15"><defs><style>.cls-1{fill:#f59261;}.cls-2{fill:#262262;}.cls-3{fill:#1c134a;}.cls-4{fill:#502a76;}.cls-5{fill:#5a499d;}.cls-6{fill:#705aa0;}.cls-7{fill:#1b134a;}.cls-8{fill:#522f79;}.cls-9{fill:#f1672e;}.cls-10{fill:#33144b;}.cls-11{fill:#fdf4ee;}.cls-12{fill:#3a2b7d;}.cls-13{fill:#ec6733;}.cls-14{fill:#f39467;}</style></defs><path class="cls-1" d="M89.87,194.15Q66.42,180.77,43,167.37c-13.08-7.5-26.06-15.18-39.23-22.53C.82,143.21,0,141.27,0,138.19c.1-14.57,0-29.14.05-43.71,0-20.65.56-65.26.82-66.92L24.78,41.38c1.79,16.62,9,30.23,22.52,40.31a20.54,20.54,0,0,0-.88,4.08c-.1,7.94.18,15.9-.19,23.82-.17,3.8,1.34,5.72,4.41,7.45,10,5.63,19.92,11.53,29.92,17.22,3.52,2,7.21,3.69,10.83,5.52.11.57-.23,35.79-.32,50.17C91.06,191.35,90.29,192.75,89.87,194.15Z"/><path class="cls-2" d="M251.42,134.29c-20.1,7.84-35.22,4.69-45.21-9.08a33.45,33.45,0,0,1,1-40.52c11.22-13.74,25.65-15.58,47-5.86a14.07,14.07,0,0,0,.3-2.65c-.16-2.26.86-2.91,3.05-3,9.18-.38,9.19-.44,9.19,8.72,0,14,.05,28.05,0,42.08a33.5,33.5,0,0,1-32.39,33.1c-2.35.08-3.56-.57-3.27-3.08.06-.52,0-1.06,0-1.59.06-2.24-.6-4.95.44-6.57.76-1.18,3.77-.89,5.76-1.32A21.16,21.16,0,0,0,251.42,134.29Zm-18.21-7.61a21.1,21.1,0,1,0,.23-42.2,21.1,21.1,0,1,0-.23,42.2Z"/><path class="cls-3" d="M138.17,135.86c-.07,10.4,0,20.84,0,31.25-.84-.68-29-17.07-29-17.07q0-40.12,0-80.24c6.5-5.09,26.73-16.48,28.18-16.92C138.31,78.22,138.24,110.44,138.17,135.86Z"/><path class="cls-2" d="M483.27,78.85V54.27h12.15v6q0,23.06,0,46.09c0,16.18-11.22,29.23-27.81,32.37-15.08,2.85-31.33-6.35-36.8-20.82-5.17-13.71-1.38-28.67,9.6-37.84,11.35-9.49,26.37-10.64,39.27-3C480.63,77.6,481.66,78,483.27,78.85Zm-21.4,47.7a21.12,21.12,0,0,0,21.4-20.9c.12-11.33-9.43-20.89-21-21a20.94,20.94,0,1,0-.43,41.88Z"/><path class="cls-4" d="M137.31,52.88c-7.47,4.39-15.77,9-23.21,13.49-1.66,1-3.16,2.27-4.73,3.41-5.81,3.22-11.71,6.63-17.52,9.84-5.92-3.28-12-6.63-17.91-9.92-2.67-1.62-5.34-3.07-8-4.69-6.29-3.57-12.71-7.42-19-11-.51-.46-1.15-.92-1.66-1.38.51-.36,1.52-1.23,2-1.59.25-1.37,1.08-2.1,1.09-3.39.11-13.88.23-27.74.28-41.62,0-1.5,2.21-3.91,2.65-3.73L64.42,9.47a34.21,34.21,0,0,0,2,3.57c1.64,5.66,2.87,11.22,5.21,16.58,4.61,10.54,10.63,18.93,21.45,23.71,10.64,4.7,22.22-3.6,22.61-13.72C116,39.58,137.31,52.88,137.31,52.88Z"/><path class="cls-2" d="M387.4,72.17c19.16.37,33.54,15.47,33.11,34.76-.41,18-15.93,32.51-34.54,32.16-18-.34-33-15.92-32.58-33.79C353.87,86.46,368.92,71.81,387.4,72.17Zm-.25,54.41a20.9,20.9,0,0,0,20.94-21,21.16,21.16,0,0,0-42.31,0A20.89,20.89,0,0,0,387.15,126.58Z"/><path class="cls-2" d="M311.87,72.3c18.89.17,33.58,14.85,33.48,33.45A33.55,33.55,0,1,1,311.87,72.3Zm.12,54.33a21,21,0,0,0,21.08-21.3c0-11.44-9.83-20.88-21.66-20.79a21,21,0,0,0,.58,42.09Z"/><path class="cls-2" d="M555.63,85.7H524.79c-5.39-.49-6.5,1.68-7.19,3.09-1.14,2.3.66,3.86,2.81,4.83,9.19,4.12,18.39,8.21,27.54,12.44s12.9,12.45,9.43,21.18c-2.56,6.43-7.47,10.5-14.45,10.75-10.87.39-21.76.21-32.64,0a3.93,3.93,0,0,1-2.68-2.7c-.91-9.68-.83-9.68,8.82-9.69,7.83,0,15.66,0,23.49,0,2.76,0,5.17-.53,5.75-3.64.54-2.87-1.69-3.84-3.8-4.79q-13.43-6-26.82-12.11c-8.28-3.76-11.82-10.48-10-18.91,1.65-7.73,8.38-13,16.77-13,10.08,0,20.17.07,30.26-.07,2.79,0,3.82.85,3.62,3.64S555.63,82.49,555.63,85.7Z"/><path class="cls-5" d="M47.16,51.64V54.1s-9.8-5.68-13.93-7.82l-8.45-4.9L.87,27.56c2.19-2,40.85-25.34,43-26.66,2.3-1.43,3.26-1.09,5.83.52-2.41,0-2.58,1.53-2.57,3.46C47.17,20.47,47.15,36.06,47.16,51.64Z"/><path class="cls-6" d="M109.24,150.11s8.53,4.77,16.26,9.31c6.63,3.91,12.63,7.69,12.63,7.69-.71.44-47,27-48.26,27C90.85,191.55,104.93,161.65,109.24,150.11Z"/><path class="cls-7" d="M115.77,39.68c-.23,11.57-12.21,18.44-22.84,13.74-10.82-4.78-18-13.25-22.64-23.8C68,24.26,66.06,15.13,64.42,9.47c0,0,6.82,3.88,6.89,3.89,4.16,11.94,7.43,24.72,20.31,30.7,8,3.71,13-2.55,15.34-9.8Z"/><path class="cls-8" d="M105.51,38.4c-2.31,6.44-7.66,8.65-13.89,5.66C81.54,39.21,76.49,30.52,73.48,20.28c-.69-2.35-1.5-4.66-2.26-7,0,.12,35.74,21,35.74,21S105.82,37.55,105.51,38.4Z"/><path class="cls-8" d="M47.16,51.64c0-15.58,0-31.17,0-46.76,0-1.93.16-3.44,2.57-3.46l1.72,1c-.2-.06-2.65,2.23-2.66,3.73,0,13.88,0,27.76-.1,41.64C48.64,49.06,47.68,50.35,47.16,51.64Z"/><path class="cls-6" d="M138.26,162.71l-.06-5.39Z"/><path class="cls-6" d="M138.3,111.88c0-.94,0-1.89,0-2.83C138.32,110,138.31,110.94,138.3,111.88Z"/><path class="cls-6" d="M138.25,135.93l-.12-3.27Z"/><path class="cls-9" d="M74,69.65l17.77,9.86c0,12.7,0,25.39-.11,38.09,0,7.39-.18,14.79-.28,22.18-3.62-1.83-7.31-3.52-10.83-5.52-10-5.69-19.89-11.59-29.92-17.22-3.07-1.73-4.58-3.65-4.41-7.45.37-7.92.09-15.88.19-23.82,0-1.36.12-4.78.12-4.78.16.66,5.44,3.18,7.91,4.05,8.62,3,15.69-.56,18.29-9.24C73.34,73.8,73.6,71.7,74,69.65Z"/><path class="cls-10" d="M91.39,139.78c.1-7.39.24-14.79.28-22.18.07-12.7.08-25.39.11-38.09l17.42-9.64q0,40.13,0,80.24a35.18,35.18,0,0,1-4.65-1.79c-3.64-2-7.19-4.12-12-6.94,0,17.31-.84,17-.83.09Z"/><path class="cls-11" d="M74,69.65c-.41,2-.67,4.15-1.27,6.15-2.6,8.68-9.67,12.28-18.29,9.24a76,76,0,0,1-7.15-3.35C33.76,71.61,26.57,58,24.78,41.38l8.45,4.9c.08,10.63,5.12,18.71,13,25.33,3.93,3.7,8.45,6.14,13.85,4.16C65,74,66,69.51,66,64.79Z"/><path class="cls-12" d="M89.87,194.15c0-16.1,1.52-37.06,1.52-54.37,4.86,2.82,16.29,9.75,17.85,10.33.32.28-1.32,3.54-2,5.11C102.56,166.64,90.15,193.71,89.87,194.15Z"/><path class="cls-13" d="M66,64.79c0,4.72-1,9.19-5.9,11-5.4,2-9.92-.46-13.85-4.16,0-1.44,0-2.88.1-4.31.25-4.4.53-8.8.8-13.2Z"/><path class="cls-14" d="M47.16,54.1c-.27,4.4-.55,8.8-.8,13.2-.08,1.43-.07,2.87-.1,4.31-7.91-6.62-12.95-14.7-13-25.33C37.36,48.42,46.64,53.64,47.16,54.1Z"/></svg>